<svg width="369.141" height="219.142" xmlns="http://www.w3.org/2000/svg"><path d="m309.522 187.207.293 7.617a97.078 97.078 0 0 1-.583-.002q-1.692-.012-7.107-.071a82.162 82.162 0 0 1-4.631-.196q-5.605-.381-13.46-1.489-4.541 10.547-6.958 16.407a597.062 597.062 0 0 0-.567 1.378q-1.665 4.065-1.831 4.68a.439.439 0 0 0-.019.094l-17.432-5.42 8.789-20.068a463.338 463.338 0 0 1-13.979-3.368 545.916 545.916 0 0 1-6.675-1.759 398.722 398.722 0 0 1-22.046-6.665 310.965 310.965 0 0 1-22.339-8.423q-11.133-4.688-21.386-10.254a314.348 314.348 0 0 1-19.96 20.942 342.824 342.824 0 0 1-.695.664q-11.133 10.621-23.877 19.043-12.744 8.423-27.026 13.623a87.295 87.295 0 0 1-30.103 5.201 97.648 97.648 0 0 1-28.051-4.175 84.495 84.495 0 0 1-20.799-9.298 77.857 77.857 0 0 1-4.25-2.86 65.014 65.014 0 0 1-17.945-19.483 48.705 48.705 0 0 1-6.716-21.647 59.387 59.387 0 0 1-.168-4.5 52.584 52.584 0 0 1 1.014-10.558 40.547 40.547 0 0 1 3.307-9.804 41.405 41.405 0 0 1 11.865-14.648 50.886 50.886 0 0 1 12.799-7.182 60.975 60.975 0 0 1 4.926-1.68 74.211 74.211 0 0 1 16.136-2.816 87.192 87.192 0 0 1 5.763-.187 99.858 99.858 0 0 1 14.364 1.073 114.447 114.447 0 0 1 4.167.685q9.594 1.757 18.676 5.859a74.387 74.387 0 0 1 17.131 10.833 171.421 171.421 0 0 1 .008.007 59.555 59.555 0 0 1 11.545 13.077 69.773 69.773 0 0 1 2.225 3.622l-6.446 4.102q-.146-.293-1.684-2.271-1.468-1.887-4.27-4.575a89.648 89.648 0 0 0-.271-.259 47.355 47.355 0 0 0-2.718-2.381q-2.19-1.785-4.973-3.698-4.614-3.172-11.003-5.848a84.33 84.33 0 0 0-.203-.085q-6.417-2.667-14.82-4.483a118.559 118.559 0 0 0-.268-.058q-8.569-1.831-19.409-1.831a54.58 54.58 0 0 0-9.537.794 40.101 40.101 0 0 0-9.652 2.942q-8.204 3.735-13.697 9.521-5.493 5.786-8.203 12.964a43.003 43.003 0 0 0-2.191 7.936 35.419 35.419 0 0 0-.519 5.98q0 7.91 2.783 14.429a42.221 42.221 0 0 0 7.544 11.792 49.761 49.761 0 0 0 11.133 9.155A78.005 78.005 0 0 0 49 206.104a83.916 83.916 0 0 0 14.502 3.955 83.182 83.182 0 0 0 12.665 1.297 75.752 75.752 0 0 0 1.763.021q14.502 0 27.832-4.761a116.895 116.895 0 0 0 25.196-12.597q11.865-7.837 22.339-17.798a279.439 279.439 0 0 0 19.409-20.362 153.502 153.502 0 0 1-16.791-11.667 140.357 140.357 0 0 1-1.593-1.296 95.791 95.791 0 0 1-11.775-11.498 85.481 85.481 0 0 1-2.8-3.444 66.04 66.04 0 0 1-9.595-17.139 54.688 54.688 0 0 1-3.442-19.409 40.678 40.678 0 0 1 3.149-15.967q3.15-7.47 8.643-13.11a40.769 40.769 0 0 1 13.037-8.935 39.984 39.984 0 0 1 16.186-3.296 55.646 55.646 0 0 1 17.227 2.639 52.764 52.764 0 0 1 1.084.364q8.642 3.003 16.406 8.203a85.847 85.847 0 0 1 13.72 11.488 94.741 94.741 0 0 1 .855.89 148.395 148.395 0 0 1 12.818 15.527 812.741 812.741 0 0 1 28.655-30.417 734.991 734.991 0 0 1 4.084-4.08q16.333-16.187 31.421-28.345a223.587 223.587 0 0 1 12.879-9.671q6.559-4.546 12.766-8.037a130.324 130.324 0 0 1 2.846-1.554 74.276 74.276 0 0 1 9.303-4.189q4.966-1.811 9.527-2.497A36.373 36.373 0 0 1 346.729 0q4.248 0 8.277 1.392 4.028 1.391 7.177 3.955 3.15 2.563 5.054 6.299 1.904 3.735 1.904 8.422a34.239 34.239 0 0 1-1.042 8.107q-.894 3.661-2.552 7.647a72.545 72.545 0 0 1-2.265 4.901 308.59 308.59 0 0 1-4.889 9.235q-2.804 5.1-6.144 10.803a615.009 615.009 0 0 1-4.201 7.061q-10.108 16.553-19.043 33.033a1187.565 1187.565 0 0 0-12.703 24.06 1036.308 1036.308 0 0 0-3.923 7.727 1370.414 1370.414 0 0 0-7.361 14.868 1120.042 1120.042 0 0 0-6.702 13.989q-6.372 13.55-11.059 24.243 5.859.733 11.718 1.172 5.86.44 10.547.293Zm-75.146-91.26q6.884 10.547 12.597 21.826a377.913 377.913 0 0 1 7.952 16.672 339.869 339.869 0 0 1 2.376 5.448 482.365 482.365 0 0 1 5.367 13.12 398.612 398.612 0 0 1 2.836 7.461 1691.919 1691.919 0 0 1 2.958 8.089q1.338 3.69 2.507 6.977a941.709 941.709 0 0 1 .76 2.146 1218.901 1218.901 0 0 1 36.621-73.243q19.483-35.888 43.799-70.898 3.955-5.859 5.64-9.741 1.16-2.674 1.521-4.826a11.136 11.136 0 0 0 .163-1.839 8.765 8.765 0 0 0-.579-3.256q-.935-2.357-3.376-3.849a16.524 16.524 0 0 0-7.2-2.332 20.453 20.453 0 0 0-1.882-.085 33.93 33.93 0 0 0-10.539 1.905q-10.011 3.301-23.062 12.325a208.021 208.021 0 0 0-10.71 7.963 345.407 345.407 0 0 0-18.67 15.994q-20.341 18.607-45.479 46.176a1148.443 1148.443 0 0 0-3.6 3.967Zm-94.336 2.491a37.55 37.55 0 0 0 2.929 14.721q2.93 6.958 8.057 13.33 5.127 6.372 12.158 12.012a140.832 140.832 0 0 0 13.202 9.365 155.209 155.209 0 0 0 2.033 1.255q10.986-13.33 22.412-26.807a1507.984 1507.984 0 0 1 23.144-26.66 151.538 151.538 0 0 0-9.935-11.797 138.918 138.918 0 0 0-.685-.727 80.102 80.102 0 0 0-8.896-8.102 71.283 71.283 0 0 0-2.603-1.932 53.71 53.71 0 0 0-10.248-5.73 48.979 48.979 0 0 0-2.203-.862 38.71 38.71 0 0 0-13.33-2.344 40.053 40.053 0 0 0-10.012 1.218 35.479 35.479 0 0 0-4.344 1.419 35.849 35.849 0 0 0-9.872 5.857 33.724 33.724 0 0 0-1.553 1.394q-4.834 4.614-7.544 10.84a33.045 33.045 0 0 0-2.668 11.736 38.523 38.523 0 0 0-.042 1.814Zm125.244 83.496a241.168 241.168 0 0 0-1.734-5.336q-1.608-4.772-3.759-10.631a364.614 364.614 0 0 0-3.736-9.723 463.051 463.051 0 0 0-4.321-10.419 342.872 342.872 0 0 0-7.58-16.438 385.944 385.944 0 0 0-2.82-5.608 212.948 212.948 0 0 0-12.671-21.533 2254.222 2254.222 0 0 0-15.573 17.798 2560.392 2560.392 0 0 0-5.374 6.226 1554.996 1554.996 0 0 0-11.06 13 1814.021 1814.021 0 0 0-11.499 13.806q10.254 5.713 21.46 10.327a371.331 371.331 0 0 0 16.479 6.345 330.25 330.25 0 0 0 5.347 1.858 392.995 392.995 0 0 0 12.875 4.115 328.383 328.383 0 0 0 7.34 2.111 373.588 373.588 0 0 0 6.836 1.813q3.372.858 6.353 1.538a188.41 188.41 0 0 0 3.437.751Z" vector-effect="non-scaling-stroke" stroke-linecap="round" fill-rule="evenodd" font-size="12" stroke="#000" stroke-width=".945" style="stroke:#000;stroke-width:.25mm;fill:#000"/></svg>