<svg width="691.407" height="232.472" xmlns="http://www.w3.org/2000/svg"><path d="m383.936 127.295-19.189 42.774a270.302 270.302 0 0 1 16.186-20.288 185.431 185.431 0 0 1 11.615-12.098 156.474 156.474 0 0 1 5.744-5.187 99.094 99.094 0 0 1 9.934-7.537 79.749 79.749 0 0 1 7.79-4.548 44.199 44.199 0 0 1 8.554-3.334 34.142 34.142 0 0 1 8.878-1.207 28.368 28.368 0 0 1 3.544.208q2.94.371 5.099 1.403a17.002 17.002 0 0 1 3 1.815 13.252 13.252 0 0 1 2.346 2.287q1.978 2.49 2.783 5.639a25.169 25.169 0 0 1 .803 5.841 23.545 23.545 0 0 1 .003.385 26.522 26.522 0 0 1-.475 4.876 36.284 36.284 0 0 1-1.209 4.645 39.859 39.859 0 0 1-2.793 6.438 49.812 49.812 0 0 1-2.334 3.889 49.248 49.248 0 0 1-5.307 6.636 60.248 60.248 0 0 1-3.409 3.325 55.003 55.003 0 0 1-7.291 5.514 69.239 69.239 0 0 1-5.307 3.056q1.611 3.808 1.611 9.228a27.444 27.444 0 0 1-.872 6.785 30.82 30.82 0 0 1-.006.027 155.569 155.569 0 0 1-1.905 6.811 155.569 155.569 0 0 0-1.904 6.812 28.02 28.02 0 0 0-.879 6.958 25.481 25.481 0 0 0 .145 2.76 22.725 22.725 0 0 0 .075.609 9.794 9.794 0 0 0 .493 2.033 8.523 8.523 0 0 0 .386.897 4.937 4.937 0 0 0 1.694 1.901 6.098 6.098 0 0 0 .356.223 5.168 5.168 0 0 0 1.227.498q.612.168 1.348.244a12.757 12.757 0 0 0 1.307.063 8.75 8.75 0 0 0 2.423-.368q1.995-.576 4.316-2.049 3.273-2.077 6.87-5.29a77.56 77.56 0 0 0 1.186-1.082 102.257 102.257 0 0 0 4.849-4.843 131.209 131.209 0 0 0 3.867-4.312 198.422 198.422 0 0 0 8.716-10.913q4.248-5.713 8.203-11.353a385.671 385.671 0 0 0 3.772-5.474 308.291 308.291 0 0 0 3.406-5.146l.795.602a236.306 236.306 0 0 1 1.402-4.777q2.895-9.504 7.468-21.01a392.918 392.918 0 0 1 1.541-3.819 257.134 257.134 0 0 1 6.39-14.282 342.893 342.893 0 0 1 7.892-15.308h-24.316l2.929-7.617h25.635a276.188 276.188 0 0 1 .873-1.472q1.525-2.555 4.327-7.17 3.736-6.153 8.789-13.623a256.851 256.851 0 0 1 9.517-13.13 282.006 282.006 0 0 1 1.47-1.885 128.64 128.64 0 0 1 5.832-6.926 93.752 93.752 0 0 1 5.813-5.891l6.592 3.955q-6.299 10.4-12.891 22.046a732.682 732.682 0 0 0-13.037 24.096h47.754l-2.93 7.617h-48.779q-6.592 13.184-12.378 26.221-5.786 13.037-10.18 24.903-4.395 11.865-6.885 22.192-1.907 7.907-2.354 14.225a52.775 52.775 0 0 0-.136 3.719 32.526 32.526 0 0 0 .342 4.902q.38 2.486 1.182 4.459a12.219 12.219 0 0 0 2.87 4.336q4.395 4.174 10.84 4.174 5.713 0 11.719-3.442a63.236 63.236 0 0 0 7.971-5.452 76.401 76.401 0 0 0 3.821-3.264 112.698 112.698 0 0 0 10.986-11.572 269.773 269.773 0 0 0 4.907-6.116 208.193 208.193 0 0 0 4.321-5.749q3.085-4.262 5.353-7.708a128.536 128.536 0 0 0 1.313-2.034 747.705 747.705 0 0 0 .626-.992 64.496 64.496 0 0 1 .259-.482q3.571-6.635 9.075-13.833a122.141 122.141 0 0 1 9.01-10.688 95.686 95.686 0 0 1 7.763-7.33 112.293 112.293 0 0 1 9.178-6.976 85.963 85.963 0 0 1 7.961-4.816 82.909 82.909 0 0 1 8.221-3.827 61.828 61.828 0 0 1 7.819-2.545 71.507 71.507 0 0 1 6.248-1.285q3.086-.484 5.851-.589a39.841 39.841 0 0 1 1.524-.03 65.082 65.082 0 0 1 7.42.394q7.673.883 12.421 3.748a18.761 18.761 0 0 1 .52.326 18.1 18.1 0 0 1 7.61 10.403 25.612 25.612 0 0 1 .74 3.293 203.941 203.941 0 0 1 6.152-7.324 3840.36 3840.36 0 0 1 6.592-7.471l4.687 2.051q-1.703 3.407-4.637 8.689a471.478 471.478 0 0 1-.709 1.272 711.092 711.092 0 0 0-3.571 6.463 922.569 922.569 0 0 0-3.827 7.087 620.119 620.119 0 0 0-5.974 11.467 689.566 689.566 0 0 0-2.009 3.987 304.165 304.165 0 0 0-5.631 11.879 272.212 272.212 0 0 0-1.693 3.868q-3.296 7.69-5.42 14.502a59.889 59.889 0 0 0-1.21 4.432q-.914 3.991-.914 7.067a18.919 18.919 0 0 0 .087 1.893q.313 3.099 1.744 4.186a6.546 6.546 0 0 0 2.446 1.134q1.056.257 2.314.257a16.003 16.003 0 0 0 5.259-.924 21.697 21.697 0 0 0 3.457-1.566 43.496 43.496 0 0 0 5.528-3.685 53.536 53.536 0 0 0 3.261-2.76 84.276 84.276 0 0 0 6.359-6.51 97.6 97.6 0 0 0 2.064-2.426 177.043 177.043 0 0 0 7.691-10.034 242.252 242.252 0 0 0 4.228-6.145 200.405 200.405 0 0 0 2.29-3.523q2.93-4.614 4.981-7.837l5.273 4.102a150.763 150.763 0 0 1-2.71 4.87 198.698 198.698 0 0 1-3.149 5.237 170.172 170.172 0 0 1-6.401 9.541 187.735 187.735 0 0 1-.997 1.372 127.303 127.303 0 0 1-8.716 10.62 75.257 75.257 0 0 1-8.917 8.331 69.128 69.128 0 0 1-.97.751 48.494 48.494 0 0 1-10.201 6 45.351 45.351 0 0 1-.712.299 30.607 30.607 0 0 1-11.719 2.344q-6.295 0-10.185-2.705a12.323 12.323 0 0 1-2.706-2.568q-4.101-5.274-4.101-13.623a18.547 18.547 0 0 1 .003-.323q.01-.533.045-1.563a295.38 295.38 0 0 1 .025-.678 25.833 25.833 0 0 1 .067-1.157q.098-1.187.299-1.992a157.954 157.954 0 0 1-6.276 7.45q-3.961 4.403-7.713 7.784-6.416 5.782-12.425 9.255a53.035 53.035 0 0 1-.466.267 53.993 53.993 0 0 1-6.116 2.984 40.886 40.886 0 0 1-5.896 1.923 50.691 50.691 0 0 1-7.032 1.196 42.362 42.362 0 0 1-4.027.195 30.073 30.073 0 0 1-9.081-1.352 28.203 28.203 0 0 1-1.393-.479 25.457 25.457 0 0 1-8.642-5.346 24.209 24.209 0 0 1-5.285-7.348 28.406 28.406 0 0 1-.575-1.295 27.139 27.139 0 0 1-1.717-6.278 36.709 36.709 0 0 1-.407-5.587 45.44 45.44 0 0 1 .276-4.739 131.951 131.951 0 0 1-10.456 12.283 78.351 78.351 0 0 1-15.918 12.797 73.384 73.384 0 0 1-1.148.679 39.067 39.067 0 0 1-19.922 5.347 31.3 31.3 0 0 1-5.719-.498 23.166 23.166 0 0 1-5.78-1.846q-4.907-2.344-8.276-6.518a27.212 27.212 0 0 1-4.172-7.295 32.691 32.691 0 0 1-.882-2.593 41.384 41.384 0 0 1-1.52-8.34 50.287 50.287 0 0 1-.164-4.111 39.375 39.375 0 0 1 .122-2.932q.223-2.951.848-6.963a158.703 158.703 0 0 1 .216-1.342 1229.247 1229.247 0 0 1-2.811 4.068 1086.348 1086.348 0 0 1-3.576 5.118 188.102 188.102 0 0 1-7.104 9.485 145.563 145.563 0 0 1-7.105 8.24 82.685 82.685 0 0 1-7.159 6.848 62.063 62.063 0 0 1-7.269 5.31 30.802 30.802 0 0 1-8.083 3.592 26.354 26.354 0 0 1-7.005.949 23.716 23.716 0 0 1-4.687-.484 27.967 27.967 0 0 1-1.685-.395 17.935 17.935 0 0 1-6.006-2.856 15.116 15.116 0 0 1-3.835-4.13 18.025 18.025 0 0 1-.633-1.071 13.727 13.727 0 0 1-1.358-3.775q-.4-1.901-.4-4.135a27.623 27.623 0 0 1 .46-4.837q.671-3.764 2.324-8.2 1.673-4.724 2.751-8.423a83.059 83.059 0 0 0 .911-3.369 63.385 63.385 0 0 0 .684-3.091q.538-2.777.634-4.892a98.304 98.304 0 0 1-4.716.996 113.984 113.984 0 0 1-1.803.322q-3.442.586-6.518.586a16.49 16.49 0 0 1-1.85-.11 21.795 21.795 0 0 1-1.666-.256 12.081 12.081 0 0 1-3.364-1.164 11.42 11.42 0 0 1-.151-.081 8.742 8.742 0 0 1-2.71-2.271q-1.092-1.383-1.099-3.562a8.787 8.787 0 0 1 0-.027 6.945 6.945 0 0 1 .991-3.551 8.728 8.728 0 0 1 .401-.624 12.033 12.033 0 0 1 2.076-2.246 15.735 15.735 0 0 1 1.732-1.269 17.722 17.722 0 0 1 2.929-1.485 23.877 23.877 0 0 1 2.857-.932 26.575 26.575 0 0 1 4.022-.711 34.099 34.099 0 0 1 3.449-.168 23.611 23.611 0 0 1 6.761.931 19.554 19.554 0 0 1 6.276 3.17 45.99 45.99 0 0 0 5.877-5.413 38.635 38.635 0 0 0 2.839-3.522 56.378 56.378 0 0 0 3.058-4.761 42.543 42.543 0 0 0 2.289-4.614 57.508 57.508 0 0 0 1.354-3.532q.609-1.773 1.005-3.373a30.33 30.33 0 0 0 .277-1.225q.579-2.834.7-4.527a11.525 11.525 0 0 0 .033-.82 20.918 20.918 0 0 0-.11-2.229q-.33-3.062-1.648-4.436a5.887 5.887 0 0 0-2.142-1.455 5.82 5.82 0 0 0-2.106-.376 17.115 17.115 0 0 0-4.312.589q-1.908.497-3.965 1.413a35.066 35.066 0 0 0-2.197 1.074 58.376 58.376 0 0 0-5.896 3.626q-2.815 1.957-5.727 4.397a94.654 94.654 0 0 0-.388.327 146.751 146.751 0 0 0-7.497 6.83 183.749 183.749 0 0 0-5.248 5.328 264.95 264.95 0 0 0-12.744 14.502 436.294 436.294 0 0 0-12.011 15.381 711.804 711.804 0 0 0-5.548 7.544 576.538 576.538 0 0 0-5.072 7.105 446.608 446.608 0 0 0-4.157 7.067 344.187 344.187 0 0 0-3.68 6.556 719.908 719.908 0 0 0-2.428 4.476q-.947 1.763-1.786 3.354a368.755 368.755 0 0 0-1.573 3.009 449.775 449.775 0 0 1-1.107 2.134q-1.077 2.058-1.88 3.532a106.194 106.194 0 0 1-.675 1.219 23.711 23.711 0 0 1-.297.515q-1.038 1.742-1.167 1.097l-14.502-3.809q17.285-39.404 35.009-78.809 17.725-39.404 37.354-79.687a434.691 434.691 0 0 1 3.131-6.134 575.083 575.083 0 0 1 3.534-6.684 254.994 254.994 0 0 1 8.057-13.916q4.321-6.958 9.228-13.549a103.856 103.856 0 0 1 6.249-7.639 86.102 86.102 0 0 1 3.858-4.007 56.267 56.267 0 0 1 5.754-4.914 44.402 44.402 0 0 1 4.867-3.143A24.917 24.917 0 0 1 447.51.751a20.222 20.222 0 0 1 5.42-.75 16.548 16.548 0 0 1 4.14.491 12.132 12.132 0 0 1 5.162 2.731q2.881 2.587 3.449 7.627a23.465 23.465 0 0 1 .14 2.627q0 9.668-5.2 23.511a125.188 125.188 0 0 1-6.343 14.034q-3.416 6.52-7.83 13.371a206.081 206.081 0 0 1-1.281 1.965 198.81 198.81 0 0 1-13.135 17.584 257.026 257.026 0 0 1-12.427 13.837 206.675 206.675 0 0 1-24.615 21.674 243.131 243.131 0 0 1-11.054 7.842Zm-74.414 73.243.293 7.617a97.078 97.078 0 0 1-.583-.003q-1.692-.011-7.107-.07a82.162 82.162 0 0 1-4.631-.196q-5.605-.381-13.46-1.489-4.541 10.547-6.958 16.406a597.062 597.062 0 0 0-.567 1.378q-1.665 4.065-1.831 4.68a.439.439 0 0 0-.019.095l-17.432-5.42 8.789-20.069a463.338 463.338 0 0 1-13.979-3.367 545.916 545.916 0 0 1-6.675-1.76 398.722 398.722 0 0 1-22.046-6.665 310.965 310.965 0 0 1-22.339-8.423q-11.133-4.687-21.386-10.253a314.348 314.348 0 0 1-19.96 20.942 342.824 342.824 0 0 1-.695.664q-11.133 10.62-23.877 19.043t-27.026 13.623a87.295 87.295 0 0 1-30.103 5.2 97.648 97.648 0 0 1-28.051-4.175 84.495 84.495 0 0 1-20.799-9.298 77.857 77.857 0 0 1-4.25-2.86 65.014 65.014 0 0 1-17.945-19.482 48.705 48.705 0 0 1-6.716-21.647 59.387 59.387 0 0 1-.168-4.501 52.584 52.584 0 0 1 1.014-10.557 40.547 40.547 0 0 1 3.307-9.804 41.405 41.405 0 0 1 11.865-14.648 50.886 50.886 0 0 1 12.799-7.183 60.975 60.975 0 0 1 4.926-1.68 74.211 74.211 0 0 1 16.136-2.815 87.192 87.192 0 0 1 5.763-.188 99.858 99.858 0 0 1 14.364 1.073 114.447 114.447 0 0 1 4.167.685q9.594 1.758 18.676 5.86a74.387 74.387 0 0 1 17.131 10.833 171.421 171.421 0 0 1 .008.006 59.555 59.555 0 0 1 11.545 13.078 69.773 69.773 0 0 1 2.225 3.622l-6.446 4.101q-.146-.293-1.684-2.27-1.468-1.888-4.27-4.575a89.648 89.648 0 0 0-.271-.259 47.355 47.355 0 0 0-2.718-2.382q-2.19-1.784-4.973-3.697-4.614-3.173-11.003-5.848a84.33 84.33 0 0 0-.203-.085q-6.417-2.668-14.82-4.484a118.559 118.559 0 0 0-.268-.057q-8.569-1.831-19.409-1.831a54.58 54.58 0 0 0-9.537.794 40.101 40.101 0 0 0-9.652 2.941q-8.204 3.736-13.697 9.522-5.493 5.786-8.203 12.964a43.003 43.003 0 0 0-2.191 7.935 35.419 35.419 0 0 0-.519 5.981q0 7.91 2.783 14.428a42.221 42.221 0 0 0 7.544 11.792 49.761 49.761 0 0 0 11.133 9.156A78.005 78.005 0 0 0 49 219.434a83.916 83.916 0 0 0 14.502 3.955 83.182 83.182 0 0 0 12.665 1.298 75.752 75.752 0 0 0 1.763.021q14.502 0 27.832-4.761a116.895 116.895 0 0 0 25.196-12.598q11.865-7.837 22.339-17.798a279.439 279.439 0 0 0 19.409-20.361 153.502 153.502 0 0 1-16.791-11.668 140.357 140.357 0 0 1-1.593-1.296 95.791 95.791 0 0 1-11.775-11.498 85.481 85.481 0 0 1-2.8-3.443 66.04 66.04 0 0 1-9.595-17.139 54.688 54.688 0 0 1-3.442-19.409 40.678 40.678 0 0 1 3.149-15.967q3.15-7.471 8.643-13.11a40.769 40.769 0 0 1 13.037-8.936 39.984 39.984 0 0 1 16.186-3.296 55.646 55.646 0 0 1 17.227 2.64 52.764 52.764 0 0 1 1.084.363q8.642 3.003 16.406 8.203a85.847 85.847 0 0 1 13.72 11.489 94.741 94.741 0 0 1 .855.889 148.395 148.395 0 0 1 12.818 15.528 812.741 812.741 0 0 1 28.655-30.418 734.991 734.991 0 0 1 4.084-4.079q16.333-16.187 31.421-28.345a223.587 223.587 0 0 1 12.879-9.671q6.559-4.546 12.766-8.037a130.324 130.324 0 0 1 2.846-1.555 74.276 74.276 0 0 1 9.303-4.189q4.966-1.811 9.527-2.497a36.373 36.373 0 0 1 5.413-.418q4.248 0 8.277 1.391 4.028 1.392 7.177 3.955 3.15 2.564 5.054 6.299 1.904 3.735 1.904 8.423a34.239 34.239 0 0 1-1.042 8.106q-.894 3.661-2.552 7.648a72.545 72.545 0 0 1-2.265 4.9 308.59 308.59 0 0 1-4.889 9.236q-2.804 5.099-6.144 10.803a615.009 615.009 0 0 1-4.201 7.061q-10.108 16.553-19.043 33.032a1187.565 1187.565 0 0 0-12.703 24.06 1036.308 1036.308 0 0 0-3.923 7.727 1370.414 1370.414 0 0 0-7.361 14.868 1120.042 1120.042 0 0 0-6.702 13.99q-6.372 13.549-11.059 24.243 5.859.732 11.718 1.172 5.86.439 10.547.293Zm-75.146-91.26q6.884 10.547 12.597 21.826a377.913 377.913 0 0 1 7.952 16.672 339.869 339.869 0 0 1 2.376 5.447 482.365 482.365 0 0 1 5.367 13.121 398.612 398.612 0 0 1 2.836 7.46 1691.919 1691.919 0 0 1 2.958 8.089q1.338 3.691 2.507 6.977a941.709 941.709 0 0 1 .76 2.146 1218.901 1218.901 0 0 1 36.621-73.242q19.483-35.889 43.799-70.898 3.955-5.86 5.64-9.742 1.16-2.673 1.521-4.826a11.136 11.136 0 0 0 .163-1.839 8.765 8.765 0 0 0-.579-3.256q-.935-2.356-3.376-3.848a16.524 16.524 0 0 0-7.2-2.332 20.453 20.453 0 0 0-1.882-.085 33.93 33.93 0 0 0-10.539 1.905q-10.011 3.301-23.062 12.325a208.021 208.021 0 0 0-10.71 7.962 345.407 345.407 0 0 0-18.67 15.995q-20.341 18.607-45.479 46.176a1148.443 1148.443 0 0 0-3.6 3.967Zm390.674 70.459a226.975 226.975 0 0 0 1.007-1.644q1.593-2.622 3.68-6.193a627.506 627.506 0 0 1 4.34-7.306 696.761 696.761 0 0 1 1.519-2.509 982.259 982.259 0 0 1 5.272-8.563 886.179 886.179 0 0 1 .734-1.178 331.557 331.557 0 0 1 2.095-3.309q.829-1.294 1.587-2.444a166.891 166.891 0 0 1 1.445-2.157q0-.994-.208-2.904a86.059 86.059 0 0 0-.158-1.344 15.785 15.785 0 0 0-1.017-3.877 19.874 19.874 0 0 0-.961-2.056 12.492 12.492 0 0 0-2.584-3.281 17.189 17.189 0 0 0-2.542-1.919q-2.591-1.619-6.692-2.045a30.274 30.274 0 0 0-3.123-.152q-4.164 0-9.252 1.17a60.196 60.196 0 0 0-.929.222q-5.551 1.369-11.812 4.585a75.613 75.613 0 0 0-.199.102 69.684 69.684 0 0 0-7.079 4.24 92.347 92.347 0 0 0-6.032 4.476 84.921 84.921 0 0 0-7.159 6.503 113.807 113.807 0 0 0-6.317 6.973 120.549 120.549 0 0 0-9.437 12.939 93.995 93.995 0 0 0-6.164 11.451q-4.313 9.604-5.239 17.717a38.146 38.146 0 0 0-.254 4.329 29.445 29.445 0 0 0 .391 4.958q.46 2.688 1.461 4.835a14.003 14.003 0 0 0 1.957 3.098 12.382 12.382 0 0 0 7.525 4.257 18.468 18.468 0 0 0 3.314.284q8.057 0 15.088-3.589a57.953 57.953 0 0 0 12.411-8.596 64.858 64.858 0 0 0 .773-.706q6.152-5.713 11.719-12.671 5.566-6.958 10.84-13.696Zm-234.668-66.504a243.504 243.504 0 0 0 18.387-15.746 195.739 195.739 0 0 0 12.155-12.599 241.616 241.616 0 0 0 11.682-14.3 177.584 177.584 0 0 0 9.411-13.752 156.037 156.037 0 0 0 6.401-11.413q2.89-5.736 4.871-11.063a87.152 87.152 0 0 0 .887-2.499 98.152 98.152 0 0 0 2.047-6.822q.917-3.552 1.376-6.662a39.772 39.772 0 0 0 .458-5.779 6.706 6.706 0 0 0-.151-1.466q-.27-1.205-1.021-2.049-1.171-1.319-3.662-1.319a12.445 12.445 0 0 0-5.145 1.175q-1.845.832-3.723 2.254a28.523 28.523 0 0 0-2.264 1.918 42.469 42.469 0 0 0-3.673 3.962q-3.672 4.448-7.886 11.347a172.229 172.229 0 0 0-1.405 2.342q-7.251 12.305-16.626 32.52a1332.563 1332.563 0 0 0-7.505 16.5q-3.325 7.433-6.978 15.796a2754.154 2754.154 0 0 0-7.636 17.655Zm-250.342-1.465a37.55 37.55 0 0 0 2.929 14.722q2.93 6.958 8.057 13.33 5.127 6.372 12.158 12.012a140.832 140.832 0 0 0 13.202 9.364 155.209 155.209 0 0 0 2.033 1.256q10.986-13.33 22.412-26.807a1507.984 1507.984 0 0 1 23.144-26.66 151.538 151.538 0 0 0-9.935-11.798 138.918 138.918 0 0 0-.685-.727 80.102 80.102 0 0 0-8.896-8.102 71.283 71.283 0 0 0-2.603-1.932 53.71 53.71 0 0 0-10.248-5.73 48.979 48.979 0 0 0-2.203-.861 38.71 38.71 0 0 0-13.33-2.344 40.053 40.053 0 0 0-10.012 1.218 35.479 35.479 0 0 0-4.344 1.418 35.849 35.849 0 0 0-9.872 5.858 33.724 33.724 0 0 0-1.553 1.393q-4.834 4.615-7.544 10.84a33.045 33.045 0 0 0-2.668 11.736 38.523 38.523 0 0 0-.042 1.814Zm125.244 83.496a241.168 241.168 0 0 0-1.734-5.335q-1.608-4.772-3.759-10.632a364.614 364.614 0 0 0-3.736-9.722 463.051 463.051 0 0 0-4.321-10.419 342.872 342.872 0 0 0-7.58-16.438 385.944 385.944 0 0 0-2.82-5.608 212.948 212.948 0 0 0-12.671-21.533 2254.222 2254.222 0 0 0-15.573 17.798 2560.392 2560.392 0 0 0-5.374 6.225 1554.996 1554.996 0 0 0-11.06 13.001 1814.021 1814.021 0 0 0-11.499 13.806q10.254 5.713 21.46 10.327a371.331 371.331 0 0 0 16.479 6.345 330.25 330.25 0 0 0 5.347 1.858 392.995 392.995 0 0 0 12.875 4.114 328.383 328.383 0 0 0 7.34 2.112 373.588 373.588 0 0 0 6.836 1.812q3.372.859 6.353 1.538a188.41 188.41 0 0 0 3.437.751Zm143.848-24.902a6.725 6.725 0 0 0-1.33-1.914 8.918 8.918 0 0 0-1.087-.943 6.138 6.138 0 0 0-3.736-1.245 17.392 17.392 0 0 0-3.991.44 13.854 13.854 0 0 0-3.479 1.318q-3.223 1.758-3.223 3.369a1.466 1.466 0 0 0 .188.752q.312.536 1.146.771a3.565 3.565 0 0 0 .057.015 11.902 11.902 0 0 0 1.297.269 8.723 8.723 0 0 0 1.267.098 28.938 28.938 0 0 0 4.316-.31 23.797 23.797 0 0 0 2.715-.569 45.141 45.141 0 0 0 3.44-1.082 36.223 36.223 0 0 0 2.42-.969Z" vector-effect="non-scaling-stroke" stroke-linecap="round" fill-rule="evenodd" font-size="12" stroke="#000" stroke-width=".945" style="stroke:#000;stroke-width:.25mm;fill:#000"/></svg>